# xmcd
#
# Track frame offsets: 
#        150
#        14997
#        26630
#        38910
#        52435
#        66950
#        78690
#        90660
#        102660
#        115557
#        127962
#        141110
#        153852
#        166510
#        179200
#        192695
#        204810
#        215502
#        228395
#        240637
#        252050
#        264547
#
# Disc length: 3696 seconds
#
# Revision: 0
# Processed by: cddbd v1.5.2PL0 Copyright (c) Steve Scherf et al.
# Submitted via: ExactAudioCopy v0.99pb5
#
DISCID=410e6e16
DTITLE=Mae Glover - Complete Recorded Works 1927-1931
DYEAR=1993
DGENRE=Blues
TTITLE0=Joe Boy Blues
TTITLE1=Lonesome Atlanta Blues
TTITLE2=Woodchopping Blues
TTITLE3=Nobody Can Take His Place
TTITLE4=Don't Beg Your Man Back
TTITLE5=Sweetest Man Blues
TTITLE6=Kind Papa Blues
TTITLE7=Treat 'Em Right Blues
TTITLE8=Thinking Blues
TTITLE9=Kid Man Blues
TTITLE10=Shake It Daddy
TTITLE11=Pig Meat Mama
TTITLE12=I Ain't Givin' Nobody None
TTITLE13=Gas Man Blues - (featuring John Byrd)
TTITLE14=My Man Blues
TTITLE15=Grasshopper Papa
TTITLE16=Forty-Four Blues (Big Gun Blues)
TTITLE17=Skeeter Blues
TTITLE18=County Farm Blues, The
TTITLE19=Hoboken Prison Blues
TTITLE20=Two Timin' Woman (Two Timing Blues)
TTITLE21=Good Hearted Woman
EXTD=
EXTT0=
EXTT1=
EXTT2=
EXTT3=
EXTT4=
EXTT5=
EXTT6=
EXTT7=
EXTT8=
EXTT9=
EXTT10=
EXTT11=
EXTT12=
EXTT13=
EXTT14=
EXTT15=
EXTT16=
EXTT17=
EXTT18=
EXTT19=
EXTT20=
EXTT21=
PLAYORDER=
